%FSLAX44Y44*%
%MOMM*%
G71*
G01*
G75*
G04 Layer_Physical_Order=2*
G04 Layer_Color=16711680*
G04:AMPARAMS|DCode=10|XSize=1.45mm|YSize=1.15mm|CornerRadius=0.2013mm|HoleSize=0mm|Usage=FLASHONLY|Rotation=90.000|XOffset=0mm|YOffset=0mm|HoleType=Round|Shape=RoundedRectangle|*
%AMROUNDEDRECTD10*
21,1,1.4500,0.7475,0,0,90.0*
21,1,1.0475,1.1500,0,0,90.0*
1,1,0.4025,0.3738,0.5238*
1,1,0.4025,0.3738,-0.5238*
1,1,0.4025,-0.3738,-0.5238*
1,1,0.4025,-0.3738,0.5238*
%
%ADD10ROUNDEDRECTD10*%
G04:AMPARAMS|DCode=11|XSize=1mm|YSize=0.95mm|CornerRadius=0.1995mm|HoleSize=0mm|Usage=FLASHONLY|Rotation=180.000|XOffset=0mm|YOffset=0mm|HoleType=Round|Shape=RoundedRectangle|*
%AMROUNDEDRECTD11*
21,1,1.0000,0.5510,0,0,180.0*
21,1,0.6010,0.9500,0,0,180.0*
1,1,0.3990,-0.3005,0.2755*
1,1,0.3990,0.3005,0.2755*
1,1,0.3990,0.3005,-0.2755*
1,1,0.3990,-0.3005,-0.2755*
%
%ADD11ROUNDEDRECTD11*%
G04:AMPARAMS|DCode=12|XSize=2mm|YSize=1mm|CornerRadius=0.25mm|HoleSize=0mm|Usage=FLASHONLY|Rotation=180.000|XOffset=0mm|YOffset=0mm|HoleType=Round|Shape=RoundedRectangle|*
%AMROUNDEDRECTD12*
21,1,2.0000,0.5000,0,0,180.0*
21,1,1.5000,1.0000,0,0,180.0*
1,1,0.5000,-0.7500,0.2500*
1,1,0.5000,0.7500,0.2500*
1,1,0.5000,0.7500,-0.2500*
1,1,0.5000,-0.7500,-0.2500*
%
%ADD12ROUNDEDRECTD12*%
G04:AMPARAMS|DCode=13|XSize=1mm|YSize=0.9mm|CornerRadius=0.198mm|HoleSize=0mm|Usage=FLASHONLY|Rotation=0.000|XOffset=0mm|YOffset=0mm|HoleType=Round|Shape=RoundedRectangle|*
%AMROUNDEDRECTD13*
21,1,1.0000,0.5040,0,0,0.0*
21,1,0.6040,0.9000,0,0,0.0*
1,1,0.3960,0.3020,-0.2520*
1,1,0.3960,-0.3020,-0.2520*
1,1,0.3960,-0.3020,0.2520*
1,1,0.3960,0.3020,0.2520*
%
%ADD13ROUNDEDRECTD13*%
G04:AMPARAMS|DCode=14|XSize=1.75mm|YSize=1.05mm|CornerRadius=0.1995mm|HoleSize=0mm|Usage=FLASHONLY|Rotation=180.000|XOffset=0mm|YOffset=0mm|HoleType=Round|Shape=RoundedRectangle|*
%AMROUNDEDRECTD14*
21,1,1.7500,0.6510,0,0,180.0*
21,1,1.3510,1.0500,0,0,180.0*
1,1,0.3990,-0.6755,0.3255*
1,1,0.3990,0.6755,0.3255*
1,1,0.3990,0.6755,-0.3255*
1,1,0.3990,-0.6755,-0.3255*
%
%ADD14ROUNDEDRECTD14*%
G04:AMPARAMS|DCode=15|XSize=3.3mm|YSize=1.65mm|CornerRadius=0.198mm|HoleSize=0mm|Usage=FLASHONLY|Rotation=180.000|XOffset=0mm|YOffset=0mm|HoleType=Round|Shape=RoundedRectangle|*
%AMROUNDEDRECTD15*
21,1,3.3000,1.2540,0,0,180.0*
21,1,2.9040,1.6500,0,0,180.0*
1,1,0.3960,-1.4520,0.6270*
1,1,0.3960,1.4520,0.6270*
1,1,0.3960,1.4520,-0.6270*
1,1,0.3960,-1.4520,-0.6270*
%
%ADD15ROUNDEDRECTD15*%
G04:AMPARAMS|DCode=16|XSize=4.1mm|YSize=2.1mm|CornerRadius=0.1995mm|HoleSize=0mm|Usage=FLASHONLY|Rotation=180.000|XOffset=0mm|YOffset=0mm|HoleType=Round|Shape=RoundedRectangle|*
%AMROUNDEDRECTD16*
21,1,4.1000,1.7010,0,0,180.0*
21,1,3.7010,2.1000,0,0,180.0*
1,1,0.3990,-1.8505,0.8505*
1,1,0.3990,1.8505,0.8505*
1,1,0.3990,1.8505,-0.8505*
1,1,0.3990,-1.8505,-0.8505*
%
%ADD16ROUNDEDRECTD16*%
G04:AMPARAMS|DCode=17|XSize=3.2mm|YSize=2.5mm|CornerRadius=0.2mm|HoleSize=0mm|Usage=FLASHONLY|Rotation=0.000|XOffset=0mm|YOffset=0mm|HoleType=Round|Shape=RoundedRectangle|*
%AMROUNDEDRECTD17*
21,1,3.2000,2.1000,0,0,0.0*
21,1,2.8000,2.5000,0,0,0.0*
1,1,0.4000,1.4000,-1.0500*
1,1,0.4000,-1.4000,-1.0500*
1,1,0.4000,-1.4000,1.0500*
1,1,0.4000,1.4000,1.0500*
%
%ADD17ROUNDEDRECTD17*%
G04:AMPARAMS|DCode=18|XSize=1.45mm|YSize=1.15mm|CornerRadius=0.2013mm|HoleSize=0mm|Usage=FLASHONLY|Rotation=180.000|XOffset=0mm|YOffset=0mm|HoleType=Round|Shape=RoundedRectangle|*
%AMROUNDEDRECTD18*
21,1,1.4500,0.7475,0,0,180.0*
21,1,1.0475,1.1500,0,0,180.0*
1,1,0.4025,-0.5238,0.3738*
1,1,0.4025,0.5238,0.3738*
1,1,0.4025,0.5238,-0.3738*
1,1,0.4025,-0.5238,-0.3738*
%
%ADD18ROUNDEDRECTD18*%
G04:AMPARAMS|DCode=19|XSize=2.5mm|YSize=1.7mm|CornerRadius=0.204mm|HoleSize=0mm|Usage=FLASHONLY|Rotation=270.000|XOffset=0mm|YOffset=0mm|HoleType=Round|Shape=RoundedRectangle|*
%AMROUNDEDRECTD19*
21,1,2.5000,1.2920,0,0,270.0*
21,1,2.0920,1.7000,0,0,270.0*
1,1,0.4080,-0.6460,-1.0460*
1,1,0.4080,-0.6460,1.0460*
1,1,0.4080,0.6460,1.0460*
1,1,0.4080,0.6460,-1.0460*
%
%ADD19ROUNDEDRECTD19*%
G04:AMPARAMS|DCode=20|XSize=3.5mm|YSize=1.2mm|CornerRadius=0.198mm|HoleSize=0mm|Usage=FLASHONLY|Rotation=90.000|XOffset=0mm|YOffset=0mm|HoleType=Round|Shape=RoundedRectangle|*
%AMROUNDEDRECTD20*
21,1,3.5000,0.8040,0,0,90.0*
21,1,3.1040,1.2000,0,0,90.0*
1,1,0.3960,0.4020,1.5520*
1,1,0.3960,0.4020,-1.5520*
1,1,0.3960,-0.4020,-1.5520*
1,1,0.3960,-0.4020,1.5520*
%
%ADD20ROUNDEDRECTD20*%
G04:AMPARAMS|DCode=21|XSize=2.85mm|YSize=1mm|CornerRadius=0.2mm|HoleSize=0mm|Usage=FLASHONLY|Rotation=180.000|XOffset=0mm|YOffset=0mm|HoleType=Round|Shape=RoundedRectangle|*
%AMROUNDEDRECTD21*
21,1,2.8500,0.6000,0,0,180.0*
21,1,2.4500,1.0000,0,0,180.0*
1,1,0.4000,-1.2250,0.3000*
1,1,0.4000,1.2250,0.3000*
1,1,0.4000,1.2250,-0.3000*
1,1,0.4000,-1.2250,-0.3000*
%
%ADD21ROUNDEDRECTD21*%
G04:AMPARAMS|DCode=22|XSize=5.2mm|YSize=5.5mm|CornerRadius=0.182mm|HoleSize=0mm|Usage=FLASHONLY|Rotation=180.000|XOffset=0mm|YOffset=0mm|HoleType=Round|Shape=RoundedRectangle|*
%AMROUNDEDRECTD22*
21,1,5.2000,5.1360,0,0,180.0*
21,1,4.8360,5.5000,0,0,180.0*
1,1,0.3640,-2.4180,2.5680*
1,1,0.3640,2.4180,2.5680*
1,1,0.3640,2.4180,-2.5680*
1,1,0.3640,-2.4180,-2.5680*
%
%ADD22ROUNDEDRECTD22*%
G04:AMPARAMS|DCode=23|XSize=1mm|YSize=0.9mm|CornerRadius=0.198mm|HoleSize=0mm|Usage=FLASHONLY|Rotation=270.000|XOffset=0mm|YOffset=0mm|HoleType=Round|Shape=RoundedRectangle|*
%AMROUNDEDRECTD23*
21,1,1.0000,0.5040,0,0,270.0*
21,1,0.6040,0.9000,0,0,270.0*
1,1,0.3960,-0.2520,-0.3020*
1,1,0.3960,-0.2520,0.3020*
1,1,0.3960,0.2520,0.3020*
1,1,0.3960,0.2520,-0.3020*
%
%ADD23ROUNDEDRECTD23*%
G04:AMPARAMS|DCode=24|XSize=1.75mm|YSize=1.05mm|CornerRadius=0.1995mm|HoleSize=0mm|Usage=FLASHONLY|Rotation=90.000|XOffset=0mm|YOffset=0mm|HoleType=Round|Shape=RoundedRectangle|*
%AMROUNDEDRECTD24*
21,1,1.7500,0.6510,0,0,90.0*
21,1,1.3510,1.0500,0,0,90.0*
1,1,0.3990,0.3255,0.6755*
1,1,0.3990,0.3255,-0.6755*
1,1,0.3990,-0.3255,-0.6755*
1,1,0.3990,-0.3255,0.6755*
%
%ADD24ROUNDEDRECTD24*%
%ADD25O,0.6000X1.5500*%
G04:AMPARAMS|DCode=26|XSize=0.9mm|YSize=0.3mm|CornerRadius=0.1005mm|HoleSize=0mm|Usage=FLASHONLY|Rotation=180.000|XOffset=0mm|YOffset=0mm|HoleType=Round|Shape=RoundedRectangle|*
%AMROUNDEDRECTD26*
21,1,0.9000,0.0990,0,0,180.0*
21,1,0.6990,0.3000,0,0,180.0*
1,1,0.2010,-0.3495,0.0495*
1,1,0.2010,0.3495,0.0495*
1,1,0.2010,0.3495,-0.0495*
1,1,0.2010,-0.3495,-0.0495*
%
%ADD26ROUNDEDRECTD26*%
%ADD27C,0.2500*%
%ADD28C,0.5000*%
%ADD29C,1.7000*%
%ADD30C,1.8000*%
%ADD31C,1.8500*%
%ADD32O,2.0000X1.5000*%
%ADD33C,1.6000*%
%ADD34C,2.2000*%
%ADD35O,1.5000X2.0000*%
%ADD36C,2.5000*%
%ADD37C,0.7500*%
%ADD38C,1.5000*%
G36*
X544627Y205853D02*
X543453Y205367D01*
X543036Y205784D01*
X541299Y206945D01*
X539251Y207352D01*
X537230D01*
X537045Y207799D01*
X535202Y210201D01*
X532800Y212045D01*
X530002Y213203D01*
X527000Y213598D01*
X522000D01*
X518998Y213203D01*
X516200Y212045D01*
X513798Y210201D01*
X511955Y207799D01*
X510796Y205001D01*
X510401Y201999D01*
X510796Y198997D01*
X511955Y196200D01*
X513798Y193797D01*
X516200Y191954D01*
X518998Y190795D01*
X522000Y190400D01*
X527000D01*
X530002Y190795D01*
X532800Y191954D01*
X535202Y193797D01*
X535924Y194739D01*
X537522Y194882D01*
X538147Y194314D01*
Y139467D01*
X534218Y135538D01*
X534000Y135567D01*
X531977Y135301D01*
X530092Y134520D01*
X528473Y133277D01*
X527230Y131658D01*
X526450Y129773D01*
X526183Y127750D01*
X526450Y125727D01*
X527230Y123842D01*
X528473Y122223D01*
X530092Y120980D01*
X531977Y120199D01*
X534000Y119933D01*
X536023Y120199D01*
X537908Y120980D01*
X539527Y122223D01*
X540770Y123842D01*
X541550Y125727D01*
X541817Y127750D01*
X541788Y127968D01*
X543453Y129633D01*
X544627Y129147D01*
Y5373D01*
X5373D01*
Y294627D01*
X403626D01*
X404169Y293479D01*
X403468Y292624D01*
X402075Y290018D01*
X401217Y287190D01*
X400927Y284250D01*
X401217Y281310D01*
X402075Y278482D01*
X403468Y275876D01*
X405342Y273592D01*
X407626Y271718D01*
X409444Y270746D01*
Y254216D01*
X406364Y251136D01*
X405322Y249778D01*
X405080Y249194D01*
X404667Y248197D01*
X404444Y246500D01*
Y239606D01*
X401728Y237522D01*
X399645Y234806D01*
X384716D01*
X363148Y256374D01*
X363362Y258000D01*
X362915Y261394D01*
X361605Y264556D01*
X359522Y267272D01*
X356806Y269355D01*
X353644Y270665D01*
X350250Y271112D01*
X346856Y270665D01*
X343694Y269355D01*
X340978Y267272D01*
X338895Y264556D01*
X337585Y261394D01*
X337138Y258000D01*
X337585Y254606D01*
X338895Y251444D01*
X340978Y248728D01*
X343694Y246644D01*
X346856Y245335D01*
X350250Y244888D01*
X353644Y245335D01*
X355058Y245920D01*
X377364Y223614D01*
X378722Y222572D01*
X380303Y221917D01*
X382000Y221694D01*
X399645D01*
X401728Y218978D01*
X404444Y216895D01*
X407606Y215585D01*
X411000Y215138D01*
X414394Y215585D01*
X417556Y216895D01*
X420272Y218978D01*
X422355Y221694D01*
X423665Y224856D01*
X424112Y228250D01*
X423665Y231644D01*
X422355Y234806D01*
X420272Y237522D01*
X417556Y239606D01*
Y243784D01*
X420636Y246864D01*
X421157Y247543D01*
X421678Y248222D01*
X422333Y249803D01*
X422556Y251500D01*
Y270746D01*
X424374Y271718D01*
X426658Y273592D01*
X428532Y275876D01*
X429925Y278482D01*
X430783Y281310D01*
X431073Y284250D01*
X430783Y287190D01*
X429925Y290018D01*
X428532Y292624D01*
X427831Y293479D01*
X428374Y294627D01*
X503626D01*
X504169Y293479D01*
X503468Y292624D01*
X502075Y290018D01*
X501217Y287190D01*
X500927Y284250D01*
X501217Y281310D01*
X502075Y278482D01*
X503468Y275876D01*
X505342Y273592D01*
X507626Y271718D01*
X510232Y270325D01*
X513060Y269467D01*
X516000Y269177D01*
X518941Y269467D01*
X521768Y270325D01*
X524374Y271718D01*
X526658Y273592D01*
X528532Y275876D01*
X529925Y278482D01*
X530783Y281310D01*
X531073Y284250D01*
X530783Y287190D01*
X529925Y290018D01*
X528532Y292624D01*
X527831Y293479D01*
X528374Y294627D01*
X544627D01*
Y205853D01*
D02*
G37*
%LPC*%
G36*
X522500Y69604D02*
X519367Y69191D01*
X516448Y67982D01*
X513941Y66059D01*
X512018Y63552D01*
X510809Y60633D01*
X510396Y57500D01*
X510809Y54367D01*
X512018Y51448D01*
X513941Y48941D01*
X516448Y47018D01*
X519367Y45809D01*
X522500Y45396D01*
X525633Y45809D01*
X528552Y47018D01*
X531059Y48941D01*
X532982Y51448D01*
X534191Y54367D01*
X534604Y57500D01*
X534191Y60633D01*
X532982Y63552D01*
X531059Y66059D01*
X528552Y67982D01*
X525633Y69191D01*
X522500Y69604D01*
D02*
G37*
G36*
X493750Y63112D02*
X490356Y62665D01*
X487194Y61356D01*
X484478Y59272D01*
X482395Y56556D01*
X481085Y53394D01*
X480638Y50000D01*
X481085Y46606D01*
X482395Y43444D01*
X484478Y40728D01*
X487194Y38645D01*
X490356Y37335D01*
X493750Y36888D01*
X497144Y37335D01*
X500306Y38645D01*
X503022Y40728D01*
X505106Y43444D01*
X506415Y46606D01*
X506862Y50000D01*
X506415Y53394D01*
X505106Y56556D01*
X503022Y59272D01*
X500306Y61356D01*
X497144Y62665D01*
X493750Y63112D01*
D02*
G37*
G36*
X423750D02*
X420356Y62665D01*
X417194Y61356D01*
X414478Y59272D01*
X412395Y56556D01*
X411085Y53394D01*
X410638Y50000D01*
X411085Y46606D01*
X412395Y43444D01*
X414478Y40728D01*
X417194Y38645D01*
X420356Y37335D01*
X423750Y36888D01*
X427144Y37335D01*
X430306Y38645D01*
X433022Y40728D01*
X435106Y43444D01*
X436415Y46606D01*
X436862Y50000D01*
X436415Y53394D01*
X435106Y56556D01*
X433022Y59272D01*
X430306Y61356D01*
X427144Y62665D01*
X423750Y63112D01*
D02*
G37*
G36*
X467050Y95864D02*
X463591Y95409D01*
X460368Y94074D01*
X457600Y91950D01*
X455476Y89182D01*
X454141Y85959D01*
X453686Y82500D01*
X454141Y79041D01*
X455476Y75818D01*
X457600Y73050D01*
X460368Y70926D01*
X463591Y69591D01*
X467050Y69136D01*
X470509Y69591D01*
X473732Y70926D01*
X476500Y73050D01*
X478624Y75818D01*
X479853Y78785D01*
X480665Y78931D01*
X481202Y78847D01*
X482151Y76554D01*
X484041Y74091D01*
X486504Y72201D01*
X489372Y71013D01*
X491180Y70775D01*
Y82500D01*
Y94225D01*
X489372Y93987D01*
X486504Y92799D01*
X484041Y90909D01*
X482151Y88446D01*
X481202Y86153D01*
X480665Y86069D01*
X479853Y86215D01*
X478624Y89182D01*
X476500Y91950D01*
X473732Y94074D01*
X470509Y95409D01*
X467050Y95864D01*
D02*
G37*
G36*
X331750Y109317D02*
X329727Y109051D01*
X327842Y108270D01*
X326223Y107027D01*
X324980Y105408D01*
X324199Y103523D01*
X323933Y101500D01*
X324199Y99477D01*
X324980Y97592D01*
X326223Y95973D01*
X327842Y94730D01*
X329727Y93949D01*
X331750Y93683D01*
X331968Y93712D01*
X358337Y67343D01*
X358308Y67125D01*
X358574Y65102D01*
X359355Y63217D01*
X360598Y61598D01*
X362216Y60355D01*
X364102Y59574D01*
X366125Y59308D01*
X368148Y59574D01*
X370033Y60355D01*
X371652Y61598D01*
X372895Y63217D01*
X373675Y65102D01*
X373942Y67125D01*
X373675Y69148D01*
X372895Y71033D01*
X371652Y72652D01*
X370033Y73895D01*
X368148Y74675D01*
X366125Y74942D01*
X365907Y74913D01*
X339538Y101282D01*
X339567Y101500D01*
X339300Y103523D01*
X338520Y105408D01*
X337277Y107027D01*
X335658Y108270D01*
X333773Y109051D01*
X331750Y109317D01*
D02*
G37*
G36*
X392500Y87330D02*
X389265Y87011D01*
X386155Y86068D01*
X383289Y84536D01*
X380776Y82474D01*
X378714Y79961D01*
X377182Y77095D01*
X376239Y73985D01*
X375920Y70750D01*
X376239Y67515D01*
X377182Y64405D01*
X378714Y61539D01*
X380776Y59026D01*
X383289Y56964D01*
X386155Y55432D01*
X389265Y54489D01*
X392500Y54170D01*
X395735Y54489D01*
X398845Y55432D01*
X401711Y56964D01*
X404224Y59026D01*
X406286Y61539D01*
X407818Y64405D01*
X408761Y67515D01*
X409080Y70750D01*
X408761Y73985D01*
X407818Y77095D01*
X406286Y79961D01*
X404224Y82474D01*
X401711Y84536D01*
X398845Y86068D01*
X395735Y87011D01*
X392500Y87330D01*
D02*
G37*
G36*
X492218Y23730D02*
X482520D01*
Y14032D01*
X484132Y14244D01*
X486818Y15357D01*
X489124Y17126D01*
X490893Y19432D01*
X492006Y22118D01*
X492218Y23730D01*
D02*
G37*
G36*
X479980D02*
X470282D01*
X470494Y22118D01*
X471607Y19432D01*
X473376Y17126D01*
X475682Y15357D01*
X478368Y14244D01*
X479980Y14032D01*
Y23730D01*
D02*
G37*
G36*
X436250Y37608D02*
X432987Y37178D01*
X429946Y35919D01*
X427335Y33915D01*
X425331Y31304D01*
X424072Y28263D01*
X423642Y25000D01*
X424072Y21737D01*
X425331Y18696D01*
X427335Y16085D01*
X429946Y14081D01*
X432987Y12822D01*
X436250Y12392D01*
X439513Y12822D01*
X442554Y14081D01*
X445165Y16085D01*
X447169Y18696D01*
X448428Y21737D01*
X448858Y25000D01*
X448428Y28263D01*
X447169Y31304D01*
X445165Y33915D01*
X442554Y35919D01*
X439513Y37178D01*
X436250Y37608D01*
D02*
G37*
G36*
X129500Y62080D02*
X126265Y61761D01*
X123155Y60818D01*
X120289Y59286D01*
X117776Y57224D01*
X115714Y54711D01*
X114182Y51845D01*
X113239Y48735D01*
X112920Y45500D01*
X113239Y42265D01*
X114182Y39155D01*
X115714Y36289D01*
X117776Y33776D01*
X120289Y31714D01*
X123155Y30182D01*
X126265Y29239D01*
X129500Y28920D01*
X132735Y29239D01*
X135845Y30182D01*
X138711Y31714D01*
X141224Y33776D01*
X143286Y36289D01*
X144818Y39155D01*
X145761Y42265D01*
X146080Y45500D01*
X145761Y48735D01*
X144818Y51845D01*
X143286Y54711D01*
X141224Y57224D01*
X138711Y59286D01*
X135845Y60818D01*
X132735Y61761D01*
X129500Y62080D01*
D02*
G37*
G36*
X482520Y35968D02*
Y26270D01*
X492218D01*
X492006Y27882D01*
X490893Y30568D01*
X489124Y32874D01*
X486818Y34643D01*
X484132Y35756D01*
X482520Y35968D01*
D02*
G37*
G36*
X479980D02*
X478368Y35756D01*
X475682Y34643D01*
X473376Y32874D01*
X471607Y30568D01*
X470494Y27882D01*
X470282Y26270D01*
X479980D01*
Y35968D01*
D02*
G37*
G36*
X524500Y188099D02*
X521498Y187703D01*
X518700Y186544D01*
X516298Y184701D01*
X514455Y182299D01*
X513296Y179501D01*
X512901Y176499D01*
X513296Y173497D01*
X514455Y170700D01*
X516298Y168297D01*
X518700Y166454D01*
X521498Y165295D01*
X524500Y164900D01*
X527502Y165295D01*
X530300Y166454D01*
X532702Y168297D01*
X534545Y170700D01*
X535704Y173497D01*
X536099Y176499D01*
X535704Y179501D01*
X534545Y182299D01*
X532702Y184701D01*
X530300Y186544D01*
X527502Y187703D01*
X524500Y188099D01*
D02*
G37*
G36*
X155000Y182817D02*
X152977Y182551D01*
X151091Y181770D01*
X149473Y180527D01*
X148230Y178909D01*
X147450Y177023D01*
X147183Y175000D01*
X147450Y172977D01*
X148230Y171092D01*
X149473Y169473D01*
X151091Y168230D01*
X152977Y167449D01*
X153325Y167404D01*
X163444Y157284D01*
Y151687D01*
X163230Y151408D01*
X162449Y149523D01*
X162183Y147500D01*
X162449Y145477D01*
X163230Y143592D01*
X164473Y141973D01*
X166092Y140730D01*
X167977Y139950D01*
X170000Y139683D01*
X172023Y139950D01*
X173908Y140730D01*
X175527Y141973D01*
X176770Y143592D01*
X177551Y145477D01*
X177817Y147500D01*
X177551Y149523D01*
X176770Y151408D01*
X176556Y151687D01*
Y160000D01*
X176333Y161697D01*
X176061Y162352D01*
X175678Y163278D01*
X174636Y164636D01*
X162596Y176675D01*
X162551Y177023D01*
X161770Y178909D01*
X160527Y180527D01*
X158908Y181770D01*
X157023Y182551D01*
X155000Y182817D01*
D02*
G37*
G36*
X523770Y117964D02*
Y108770D01*
X532964D01*
X532769Y110252D01*
X531707Y112815D01*
X530017Y115017D01*
X527816Y116707D01*
X525252Y117769D01*
X523770Y117964D01*
D02*
G37*
G36*
X283250Y272580D02*
X280015Y272261D01*
X276905Y271318D01*
X274039Y269786D01*
X271526Y267724D01*
X269464Y265211D01*
X267932Y262345D01*
X266989Y259235D01*
X266670Y256000D01*
X266989Y252765D01*
X267932Y249655D01*
X269464Y246789D01*
X271526Y244276D01*
X274039Y242214D01*
X276905Y240682D01*
X280015Y239739D01*
X283250Y239420D01*
X286485Y239739D01*
X289595Y240682D01*
X292461Y242214D01*
X294974Y244276D01*
X297036Y246789D01*
X298568Y249655D01*
X299511Y252765D01*
X299830Y256000D01*
X299511Y259235D01*
X298568Y262345D01*
X297036Y265211D01*
X294974Y267724D01*
X292461Y269786D01*
X289595Y271318D01*
X286485Y272261D01*
X283250Y272580D01*
D02*
G37*
G36*
X518000Y248599D02*
X514998Y248204D01*
X512200Y247045D01*
X509798Y245201D01*
X507955Y242799D01*
X506796Y240002D01*
X506401Y236999D01*
Y231999D01*
X506796Y228997D01*
X507955Y226200D01*
X509798Y223798D01*
X512200Y221954D01*
X514998Y220795D01*
X518000Y220400D01*
X521002Y220795D01*
X523800Y221954D01*
X526202Y223798D01*
X528045Y226200D01*
X529204Y228997D01*
X529599Y231999D01*
Y236999D01*
X529204Y240002D01*
X528045Y242799D01*
X526202Y245201D01*
X523800Y247045D01*
X521002Y248204D01*
X518000Y248599D01*
D02*
G37*
G36*
X492500D02*
X489498Y248204D01*
X486700Y247045D01*
X484298Y245201D01*
X482455Y242799D01*
X481296Y240002D01*
X480901Y236999D01*
Y231999D01*
X481296Y228997D01*
X482455Y226200D01*
X484298Y223798D01*
X486700Y221954D01*
X489498Y220795D01*
X492500Y220400D01*
X495502Y220795D01*
X498300Y221954D01*
X500702Y223798D01*
X502545Y226200D01*
X503704Y228997D01*
X504099Y231999D01*
Y236999D01*
X503704Y240002D01*
X502545Y242799D01*
X500702Y245201D01*
X498300Y247045D01*
X495502Y248204D01*
X492500Y248599D01*
D02*
G37*
G36*
X521230Y106230D02*
X512036D01*
X512231Y104748D01*
X513293Y102184D01*
X514983Y99983D01*
X517184Y98293D01*
X519748Y97231D01*
X521230Y97036D01*
Y106230D01*
D02*
G37*
G36*
X493720Y94225D02*
Y83770D01*
X504174D01*
X503937Y85578D01*
X502748Y88446D01*
X500859Y90909D01*
X498396Y92799D01*
X495528Y93987D01*
X493720Y94225D01*
D02*
G37*
G36*
X504174Y81230D02*
X493720D01*
Y70775D01*
X495528Y71013D01*
X498396Y72201D01*
X500859Y74091D01*
X502748Y76554D01*
X503937Y79422D01*
X504174Y81230D01*
D02*
G37*
G36*
X521230Y117964D02*
X519748Y117769D01*
X517184Y116707D01*
X514983Y115017D01*
X513293Y112815D01*
X512231Y110252D01*
X512036Y108770D01*
X521230D01*
Y117964D01*
D02*
G37*
G36*
X268500Y101567D02*
X266477Y101300D01*
X264592Y100520D01*
X262973Y99277D01*
X262839Y99103D01*
X250911D01*
X250777Y99277D01*
X249158Y100520D01*
X247273Y101300D01*
X245250Y101567D01*
X243227Y101300D01*
X241342Y100520D01*
X239723Y99277D01*
X238480Y97658D01*
X237700Y95773D01*
X237433Y93750D01*
X237700Y91727D01*
X238480Y89842D01*
X239723Y88223D01*
X241342Y86980D01*
X243227Y86200D01*
X245250Y85933D01*
X247273Y86200D01*
X249158Y86980D01*
X250777Y88223D01*
X250911Y88397D01*
X262839D01*
X262973Y88223D01*
X264592Y86980D01*
X266477Y86200D01*
X268500Y85933D01*
X270523Y86200D01*
X272408Y86980D01*
X274027Y88223D01*
X275270Y89842D01*
X276050Y91727D01*
X276317Y93750D01*
X276050Y95773D01*
X275270Y97658D01*
X274027Y99277D01*
X272408Y100520D01*
X270523Y101300D01*
X268500Y101567D01*
D02*
G37*
G36*
X532964Y106230D02*
X523770D01*
Y97036D01*
X525252Y97231D01*
X527816Y98293D01*
X530017Y99983D01*
X531707Y102184D01*
X532769Y104748D01*
X532964Y106230D01*
D02*
G37*
%LPD*%
D27*
X539251Y201999D02*
X543500Y197750D01*
X524500Y201999D02*
X539251D01*
X245250Y93750D02*
X268500D01*
X331750Y101500D02*
X366125Y67125D01*
X534000Y127750D02*
X543500Y137250D01*
Y197750D01*
D28*
X411000Y246500D02*
X416000Y251500D01*
Y284250D01*
X155000Y175000D02*
X170000Y160000D01*
Y147500D02*
Y160000D01*
X382000Y228250D02*
X411000D01*
Y246500D01*
X350875Y259375D02*
X382000Y228250D01*
D29*
X436250Y25000D02*
D03*
X481250D02*
D03*
D30*
X423750Y50000D02*
D03*
X493750D02*
D03*
X200250Y258000D02*
D03*
X350250D02*
D03*
X411000Y228250D02*
D03*
D31*
X492450Y82500D02*
D03*
X467050D02*
D03*
D32*
X524500Y150999D02*
D03*
Y201999D02*
D03*
D33*
X389000Y153250D02*
D03*
X522500Y57500D02*
D03*
Y107500D02*
D03*
D34*
X416000Y284250D02*
D03*
X466000D02*
D03*
X516000D02*
D03*
D35*
X467000Y234499D02*
D03*
X492500D02*
D03*
X518000D02*
D03*
D36*
X129500Y45500D02*
D03*
X392500Y70750D02*
D03*
X283250Y256000D02*
D03*
D37*
X308750Y101500D02*
D03*
X155000Y175000D02*
D03*
X170000Y147500D02*
D03*
X404500Y112500D02*
D03*
X428750Y121250D02*
D03*
X536500Y48000D02*
D03*
X416750Y25000D02*
D03*
X268500Y93750D02*
D03*
X245250D02*
D03*
X89250Y12750D02*
D03*
X23000Y49500D02*
D03*
X115253Y81997D02*
D03*
X27000Y268750D02*
D03*
X366125Y67125D02*
D03*
X331750Y101500D02*
D03*
X23000Y19499D02*
D03*
X27000Y227749D02*
D03*
X483500Y123750D02*
D03*
X534000Y127750D02*
D03*
D38*
X524500Y176499D02*
D03*
M02*
