M48
;Layer_Color=9474304
;FILE_FORMAT=4:4
METRIC,LZ
;TYPE=PLATED
T1F00S00C0.4000
T2F00S00C0.9000
T3F00S00C1.0000
T4F00S00C1.1000
T5F00S00C1.1500
T6F00S00C1.3000
T7F00S00C1.5000
T8F00S00C2.5000
%
T01
X00023Y00019499
Y000495
X0008925Y0001275
X00115253Y00081997
X0024525Y0009375
X002685
X0030875Y001015
X0033175
X00366125Y00067125
X004045Y001125
X0042875Y0012125
X004835Y0012375
X00534Y0012775
X005365Y00048
X0041675Y00025
X0017Y001475
X00155Y00175
X00027Y00227749
Y0026875
T02
X005225Y000575
Y001075
T03
X0043625Y00025
X0048125
T04
X0020025Y00258
X0035025
X00411Y0022825
X00389Y0015325
T05
X0046705Y000825
X0049245
T06
X0042375Y0005
X0049375
X005245Y00150999
Y00176499
Y00201999
X00518Y00234499
X004925
X00467
T07
X00416Y0028425
X00466
X00516
T08
X001295Y000455
X003925Y0007075
X0028325Y00256
M30
